<?xml version="1.0" standalone="no"?><!DOCTYPE svg PUBLIC "-//W3C//DTD SVG 1.1//EN" "http://www.w3.org/Graphics/SVG/1.1/DTD/svg11.dtd"><svg class="icon" width="200px" height="187.55px" viewBox="0 0 1092 1024" version="1.1" xmlns="http://www.w3.org/2000/svg"><path fill="#333333" d="M882.483764 761.822272V557.579598h-44.352923v204.242674c-20.275622 6.737843-35.078093 22.590844-41.815935 41.599239H569.478853v44.352923h226.836053c9.211468 26.611754 34.049105 44.560748 63.258672 44.560747 37.053699 0 67.360684-30.120703 67.360685-67.171867 0-29.209568-19.105972-54.129574-44.450499-63.341042z m-22.910186 85.621416c-12.350388 0-22.362744-10.012355-22.362743-22.362744 0-12.351655 10.012355-22.362744 22.362743-22.362743 12.351655 0 22.362744 10.012355 22.362744 22.362743 0 12.350388-10.012355 22.362744-22.362744 22.362744zM838.130841 262.176461V446.063678h44.352923V262.175194c25.344527-9.211468 44.449232-34.047838 44.449231-63.256138 0-37.052431-30.170125-66.661175-67.223823-66.661175-29.209568 0-54.184065 18.542056-63.395533 45.153809H569.478853v44.352923h226.836053c6.73911 19.008395 21.540314 33.672739 41.815935 40.411848z m21.442737-85.620149c12.351655 0 22.362744 10.012355 22.362744 22.362744 0 12.349121-10.012355 22.362744-22.362744 22.362743-12.350388 0-22.362744-10.013623-22.362743-22.362743 0-12.350388 10.011088-22.362744 22.362743-22.362744zM256.473943 761.822272V557.579598h-45.620149v204.242674c-25.344527 9.211468-44.627911 34.049105-44.627911 63.258672 0 37.051164 30.083954 67.254237 67.135118 67.254237 29.209568 0 54.094092-17.948994 63.304293-44.560747H502.315856v-44.352923H296.666561c-6.737843-19.008395-21.184223-34.861397-40.192618-41.599239z m-23.06352 85.621416c-12.349121 0-22.360209-10.012355-22.360209-22.362744 0-12.351655 10.012355-22.362744 22.360209-22.362743 12.351655 0 22.362744 10.012355 22.362743 22.362743 0 12.350388-10.012355 22.362744-22.362743 22.362744zM210.853794 262.176461V446.063678h45.620149V262.175194c19.008395-6.737843 33.453509-21.402186 40.191351-40.410581H502.315856v-44.352923H296.666561c-9.211468-26.611754-34.046571-45.15381-63.256138-45.153809-37.051164 0-67.18454 29.821638-67.18454 66.875336 0 29.2083 19.283383 53.831776 44.627911 63.043244z m22.556629-85.620149c12.351655 0 22.362744 10.012355 22.362743 22.362744 0 12.349121-10.012355 22.362744-22.362743 22.362743-12.349121 0-22.360209-10.013623-22.360209-22.362743 0-12.350388 10.011088-22.362744 22.360209-22.362744zM569.478853 534.769523h111.190243c12.351655 0 22.362744-9.824806 22.362743-22.176461s-10.011088-22.176461-22.361476-22.176461H569.478853v-112.594329c0-12.350388-10.458419-22.362744-22.808807-22.362744-12.351655 0-22.811342 10.012355-22.811342 22.362744V490.416601h-111.546333c-12.351655 0-22.360209 9.824806-22.360209 22.176461s10.009821 22.176461 22.360209 22.176461h111.546333v111.408205c0 12.349121 10.459686 22.362744 22.811342 22.362744 12.350388 0 22.808807-10.013623 22.808807-22.362744V534.769523z" /></svg>
