<?xml version="1.0" standalone="no"?><!DOCTYPE svg PUBLIC "-//W3C//DTD SVG 1.1//EN" "http://www.w3.org/Graphics/SVG/1.1/DTD/svg11.dtd"><svg class="icon" width="200px" height="187.55px" viewBox="0 0 1092 1024" version="1.1" xmlns="http://www.w3.org/2000/svg"><path fill="#333333" d="M698.735942 82.454617L217.821004 82.369713c-27.995565 0-51.320133 22.058609-51.320133 50.054174v760.335815c0 27.995565 23.324568 50.056708 51.320133 50.056709H876.781245c27.99303 0 50.055441-22.061144 50.055441-50.056709V309.027087l-228.100744-226.57247zM876.147632 892.127356h-658.957706V131.791541h430.856961v229.367971h228.100745v530.967844z m-182.480596-577.855219V132.423887L876.781245 314.272137h-183.114209zM622.052273 750.447648L468.63298 498.993189 370.107397 658.957706H261.542848v-50.689054h80.253445l127.04071-206.2639 151.982259 249.10122L687.896087 534.769523H829.260257v50.689055h-112.079836z" /></svg>