<?xml version="1.0" standalone="no"?><!DOCTYPE svg PUBLIC "-//W3C//DTD SVG 1.1//EN" "http://www.w3.org/Graphics/SVG/1.1/DTD/svg11.dtd"><svg class="icon" width="200px" height="187.55px" viewBox="0 0 1092 1024" version="1.1" xmlns="http://www.w3.org/2000/svg"><path fill="#333333" d="M546.422937 131.830825c-209.962934 0-380.169175 170.208776-380.169175 380.169175s170.206241 380.169175 380.169175 380.169175c209.960399 0 380.16664-170.208776 380.16664-380.169175S756.383336 131.830825 546.422937 131.830825z m0 715.612863c-185.26089 0-335.443688-150.184065-335.443688-335.443688 0-185.26089 150.182797-335.443688 335.443688-335.443688 185.258356 0 335.443688 150.182797 335.443687 335.443688 0 185.258356-150.185332 335.443688-335.443687 335.443688zM546.422937 444.911769c-37.053699 0-67.090765 30.035799-67.090765 67.088231 0 37.051164 30.038334 67.088231 67.090765 67.088231 37.051164 0 67.086963-30.038334 67.086963-67.088231 0-37.052431-30.035799-67.088231-67.086963-67.088231z m0 89.450975c-12.350388 0-22.362744-10.012355-22.362744-22.362744s10.012355-22.362744 22.362744-22.362744c12.351655 0 22.360209 10.012355 22.360209 22.362744s-10.008554 22.362744-22.360209 22.362744zM741.067638 401.813401c16.58039 33.513068 28.982734 70.123238 28.982734 110.184065 0 44.844606 44.725487 42.766355 44.725487 0 0-48.319341-11.416442-94.462854-35.121178-132.821797-15.258673-24.686837-50.936163-2.31649-38.587043 22.637732z m-83.382227-83.844765c-32.439728-19.394899-70.758118-29.599873-111.262474-29.599873-123.510217 0-223.628703 100.123555-223.628703 223.628703 0 44.844606-44.728022 44.441628-44.728021 0 0-148.207192 120.149533-268.35419 268.356724-268.35419 49.059401 0 96.951687 10.161888 134.61999 36.159037 26.137811 18.038967 3.126247 54.004118-23.357516 38.166323zM483.290987 576.727388c8.732457 8.729922 8.732457 22.891177 0 31.626168l-15.812451 15.811183c-8.732457 8.734991-22.892444 8.734991-31.623633 0-8.734991-8.732457-8.734991-22.891177 0-31.626168l15.811183-15.811183c8.733724-8.734991 22.88991-8.734991 31.624901 0zM767.922699 292.091874c8.734991 8.732457 8.734991 22.892444 0 31.626168l-126.502138 126.502139c-8.734991 8.734991-22.892444 8.734991-31.627436 0-8.729922-8.729922-8.729922-22.891177 0-31.623634l126.507208-126.504673c8.729922-8.732457 22.892444-8.732457 31.622366 0z" /></svg>