<?xml version="1.0" standalone="no"?><!DOCTYPE svg PUBLIC "-//W3C//DTD SVG 1.1//EN" "http://www.w3.org/Graphics/SVG/1.1/DTD/svg11.dtd"><svg class="icon" width="200px" height="187.55px" viewBox="0 0 1092 1024" version="1.1" xmlns="http://www.w3.org/2000/svg"><path fill="#333333" d="M451.516553 678.324727h308.887692v47.520988H451.516553v-47.520988zM332.716617 678.324727h71.278948v47.520988h-71.278948v-47.520988zM451.516553 488.240773h308.887692v47.520988H451.516553v-47.520988zM332.716617 488.240773h71.278948v47.520988h-71.278948v-47.520988zM451.516553 298.155552h308.887692v47.520988H451.516553v-47.520988zM332.716617 298.155552h71.278948v47.520988h-71.278948v-47.520988zM879.209251 131.791541H213.911611c-26.242991 0-47.409473 21.316015-47.409473 47.56154v665.296373c0 26.242991 21.166482 48.745129 47.409473 48.745129h665.298907c26.245525 0 47.627435-22.502138 47.627435-48.745129V179.353081C926.836686 153.107556 905.456043 131.791541 879.209251 131.791541z m0.74006 689.687946c0 13.122129-10.638365 23.760494-23.760494 23.760494h-617.77285c-13.122129 0-23.760494-10.638365-23.760494-23.760494v-617.77285c0-13.122129 10.638365-23.760494 23.760494-23.760494h617.77285c13.122129 0 23.760494 10.638365 23.760494 23.760494v617.77285z" /></svg>